<svg width="85" height="85" viewBox="0 0 85 85" fill="none" xmlns="http://www.w3.org/2000/svg">
<path d="M45.4545 75H39.5455V72.0455H36.5909V69.0909H33.6364V66.1364H30.6818V63.1818H27.7273V60.2273H24.7727V57.2727H21.8182V54.3182H18.8636V51.3636H15.9091V48.4091H12.9545V45.4545H10V42.5H12.9545V39.5455H15.9091V36.5909H18.8636V39.5455H21.8182V42.5H24.7727V45.4545H27.7273V48.4091H30.6818V51.3636H33.6364V54.3182H36.5909V10H48.4091V54.3182H51.3636V51.3636H54.3182V48.4091H57.2727V45.4545H60.2273V42.5H63.1818V39.5455H66.1364V36.5909H69.0909V39.5455H72.0455V42.5H75V45.4545H72.0455V48.4091H69.0909V51.3636H66.1364V54.3182H63.1818V57.2727H60.2273V60.2273H57.2727V63.1818H54.3182V66.1364H51.3636V69.0909H48.4091V72.0455H45.4545V75Z" fill="black"/>
</svg>
